# WaveFront *.obj file (generated by Cinema 4D)

mtllib ./c4d-cube.mtl

v 100 -100 -100
v 100 100 -100
v -100 -100 -100
v -100 100 -100
v -100 -100 100
v -100 100 100
v 100 -100 100
v 100 100 100
# 8 vertices

vn 0 0 -1
vn 0 0 -1
vn 0 0 -1
vn 0 0 -1
vn -1 0 0
vn -1 0 0
vn -1 0 0
vn -1 0 0
vn 0 0 1
vn 0 0 1
vn 0 0 1
vn 0 0 1
vn 1 0 0
vn 1 0 0
vn 1 0 0
vn 1 0 0
vn 0 1 0
vn 0 1 0
vn 0 1 0
vn 0 1 0
vn 0 -1 0
vn 0 -1 0
vn 0 -1 0
vn 0 -1 0
# 24 normals

vt 0 0 0
vt 0 1 0
vt 1 1 0
vt 1 0 0
vt 0 0 0
vt 0 1 0
vt 1 1 0
vt 1 0 0
vt 0 0 0
vt 0 1 0
vt 1 1 0
vt 1 0 0
vt 0 0 0
vt 0 1 0
vt 1 1 0
vt 1 0 0
vt 0 0 0
vt 0 1 0
vt 1 1 0
vt 1 0 0
vt 0 0 0
vt 0 1 0
vt 1 1 0
vt 1 0 0
# 24 texture coordinates

g 立方体.1
usemtl 材质
f 3/4/1 4/3/1 2/2/1 1/1/1

usemtl 材质_1
f 5/4/5 6/3/5 4/2/5 3/1/5

usemtl 材质_2
f 7/4/9 8/3/9 6/2/9 5/1/9

usemtl 材质_3
f 1/4/13 2/3/13 8/2/13 7/1/13

usemtl 材质_4
f 4/4/17 6/3/17 8/2/17 2/1/17

usemtl 材质_5
f 5/4/21 3/3/21 1/2/21 7/1/21

